<?xml version="1.0" encoding="utf-8"?>
<!-- Generator: Adobe Illustrator 15.1.0, SVG Export Plug-In  -->
<!DOCTYPE svg PUBLIC "-//W3C//DTD SVG 1.1//EN" "http://www.w3.org/Graphics/SVG/1.1/DTD/svg11.dtd" [
	<!ENTITY ns_flows "http://ns.adobe.com/Flows/1.0/">
]>
<svg version="1.1"
	 xmlns="http://www.w3.org/2000/svg" xmlns:xlink="http://www.w3.org/1999/xlink" xmlns:a="http://ns.adobe.com/AdobeSVGViewerExtensions/3.0/"
	 x="0px" y="0px" width="1121px" height="298px" viewBox="-10 -10.001 1121 298" enable-background="new -10 -10.001 1121 298"
	 xml:space="preserve">
<defs>
</defs>
<path fill="#003366" d="M456.25,126.992c0.361-20.417-6.221-29.166-19.838-33.625c-4.123-1.116-19.944-2.8-29.661,3.298
	c-7.667,5.195-16.124,15.439-18.406,30.328H456.25z M393.635,208.944c-39.236-6.902-53.928-36.721-51.899-70.237
	c0.845-23.961,21.654-78.165,88.366-77.976c61.406-0.745,76.718,50.707,65.523,94.259l-108.57,0.3
	c1.617,15.02,13.208,22.913,23.032,26.642c24.806,6.527,51.151,0.726,78.251-12.832l-10.491,31.265
	C461.048,208.579,428.191,213.432,393.635,208.944L393.635,208.944z M255.983,209.335c-21.269-2.423-36.959-14.567-44.498-30.004
	c-10.268-21.94-9.887-52.361,3.563-75.563c16.36-26.272,36.882-35.081,56.65-39.693c8.515-3.208,59.536-7.715,79.579,3.196
	l-5.745,34.424c-16.355-11.141-31.749-15.225-53.075-8.726c-24.761,8.778-41.308,30.506-41.353,55.363
	c0.686,18.85,10.516,32.874,32.888,36.447c20.251,1.836,29.615-1.016,48.809-9.619l-4.926,28.546
	C299.521,213.662,264.609,210.954,255.983,209.335L255.983,209.335z M134.219,73.209l-38.237,65.193h50.141L134.219,73.209z
	 M0,211.657L111.587,27.283h60.777l33.484,184.374h-47.467l-7.469-45.215H79.087l-26.799,45.215H0z M596.594,91.208h-35.397
	l-8.536,35.959l43.573,0C620.046,121.884,613.694,93.036,596.594,91.208L596.594,91.208z M572.87,152.313h-26.057l-14.187,61.316
	l-42.306-0.002L528.14,68.083h98.872c22.879,2.595,31.165,18.981,30.471,38.094c-0.116,20.334-8.574,31.627-34.172,46.273
	l24.936,61.675h-49.643L572.87,152.313z M844.679,138.968L928.193,0l39.006,69.398l-36.925,69.57l37.748,73.183l-39.829,65.611
	L844.679,138.968z"/>
<path fill="#FF0000" d="M969.681,139.957l41.962-66.728l41.998,66.728l-41.998,66.729L969.681,139.957z"/>
<path fill="#003366" d="M1081.57,9.3c3.335,0,6.591,0.86,9.768,2.58c3.177,1.703,5.651,4.151,7.424,7.345
	c1.773,3.177,2.659,6.494,2.659,9.952c0,3.422-0.877,6.713-2.633,9.873c-1.737,3.159-4.186,5.616-7.345,7.372
	c-3.142,1.737-6.433,2.606-9.873,2.606c-3.439,0-6.739-0.869-9.898-2.606c-3.142-1.755-5.59-4.212-7.346-7.372
	c-1.755-3.159-2.633-6.45-2.633-9.873c0-3.458,0.887-6.775,2.659-9.952c1.79-3.194,4.274-5.643,7.451-7.345
	C1074.98,10.16,1078.236,9.3,1081.57,9.3L1081.57,9.3z M1081.57,12.591c-2.79,0-5.511,0.719-8.161,2.159
	c-2.633,1.422-4.695,3.466-6.187,6.134c-1.492,2.65-2.238,5.415-2.238,8.293c0,2.861,0.729,5.607,2.186,8.24
	c1.474,2.615,3.527,4.66,6.16,6.134c2.633,1.457,5.38,2.185,8.24,2.185c2.861,0,5.607-0.729,8.24-2.185
	c2.633-1.475,4.678-3.519,6.135-6.134c1.456-2.633,2.185-5.379,2.185-8.24c0-2.878-0.745-5.643-2.237-8.293
	c-1.475-2.668-3.537-4.712-6.188-6.134C1087.056,13.31,1084.344,12.591,1081.57,12.591z M1073.658,39.514V18.136h7.346
	c2.51,0,4.326,0.202,5.449,0.605c1.123,0.386,2.019,1.07,2.686,2.053s1,2.027,1,3.133c0,1.562-0.562,2.922-1.685,4.081
	c-1.106,1.158-2.58,1.808-4.423,1.948c0.755,0.316,1.36,0.693,1.816,1.132c0.86,0.842,1.913,2.255,3.159,4.239l2.606,4.186h-4.213
	l-1.895-3.37c-1.492-2.65-2.694-4.309-3.607-4.976c-0.632-0.492-1.553-0.737-2.764-0.737h-2.027v9.083H1073.658z M1077.107,27.482
	h4.186c2.001,0,3.361-0.298,4.081-0.895c0.737-0.597,1.105-1.386,1.105-2.369c0-0.632-0.176-1.194-0.526-1.685
	c-0.352-0.509-0.843-0.886-1.475-1.132c-0.614-0.246-1.764-0.369-3.449-0.369h-3.922V27.482z"/>
</svg>
